# xmcd
#
# Track frame offsets:
#	150
#	63988
#	109158
#	116136
#	144258
#	182844
#	221057
#	256557
#	281003
#	301897
#	337734
#
# Disc length: 4735 seconds
#
# Revision: 0
# Processed by: cddbd v1.5.2PL0 Copyright (c) Steve Scherf et al.
# Submitted via: audiograbber 1.83.01
#
DISCID=9c127d0b
DTITLE=Grateful Dead - 82-08-01 Zoo Amphitheatre, Oklahoma City OK
DYEAR=1900
DGENRE=
TTITLE0=Playing In The Band
TTITLE1=Iko Iko
TTITLE2=Playing In The Band Jam
TTITLE3=Lost Sailor
TTITLE4=Saint Of Circumstance
TTITLE5=Drums
TTITLE6=Space
TTITLE7=The Wheel
TTITLE8=Playing In The Band Reprise
TTITLE9=Black Peter
TTITLE10=Around and Around
EXTD=
EXTT0=
EXTT1=
EXTT2=
EXTT3=
EXTT4=
EXTT5=
EXTT6=
EXTT7=
EXTT8=
EXTT9=
EXTT10=
PLAYORDER=
